<?xml version="1.0" encoding="UTF-8" standalone="no"?>
<!DOCTYPE svg PUBLIC "-//W3C//DTD SVG 1.1//EN"
 "http://www.w3.org/Graphics/SVG/1.1/DTD/svg11.dtd">
<!-- Generated by graphviz version 12.1.1 (20240910.0053)
 -->
<!-- Title: INFRA Pages: 1 -->
<svg width="463pt" height="296pt"
 viewBox="0.00 0.00 463.12 296.00" xmlns="http://www.w3.org/2000/svg" xmlns:xlink="http://www.w3.org/1999/xlink">
<g id="graph0" class="graph" transform="scale(1 1) rotate(0) translate(4 292)">
<title>INFRA</title>
<polygon fill="white" stroke="none" points="-4,4 -4,-292 459.12,-292 459.12,4 -4,4"/>
<!-- LambdaFunction -->
<g id="node1" class="node">
<title>LambdaFunction</title>
<path fill="#b7e0ff" stroke="black" stroke-width="2" d="M235.96,-180C235.96,-180 82.9,-180 82.9,-180 76.9,-180 70.9,-174 70.9,-168 70.9,-168 70.9,-120 70.9,-120 70.9,-114 76.9,-108 82.9,-108 82.9,-108 235.96,-108 235.96,-108 241.96,-108 247.96,-114 247.96,-120 247.96,-120 247.96,-168 247.96,-168 247.96,-174 241.96,-180 235.96,-180"/>
<text text-anchor="middle" x="159.43" y="-148.2" font-family="Arial" font-size="14.00">LambdaFunction</text>
<text text-anchor="middle" x="159.43" y="-131.4" font-family="Arial" font-size="14.00">(AWS::Lambda::Function)</text>
</g>
<!-- LambdaExecutionRole -->
<g id="node2" class="node">
<title>LambdaExecutionRole</title>
<path fill="#e6e6e6" stroke="black" stroke-width="2" d="M144.87,-72C144.87,-72 12,-72 12,-72 6,-72 0,-66 0,-60 0,-60 0,-12 0,-12 0,-6 6,0 12,0 12,0 144.87,0 144.87,0 150.87,0 156.87,-6 156.87,-12 156.87,-12 156.87,-60 156.87,-60 156.87,-66 150.87,-72 144.87,-72"/>
<text text-anchor="middle" x="78.43" y="-40.2" font-family="Arial" font-size="14.00">LambdaExecutionRole</text>
<text text-anchor="middle" x="78.43" y="-23.4" font-family="Arial" font-size="14.00">(AWS::IAM::Role)</text>
</g>
<!-- LambdaFunction&#45;&gt;LambdaExecutionRole -->
<g id="edge1" class="edge">
<title>LambdaFunction&#45;&gt;LambdaExecutionRole</title>
<path fill="none" stroke="black" d="M132.46,-107.7C125.97,-99.21 118.96,-90.03 112.2,-81.19"/>
<polygon fill="black" stroke="black" points="115.06,-79.17 106.21,-73.34 109.5,-83.42 115.06,-79.17"/>
</g>
<!-- S3Bucket -->
<g id="node3" class="node">
<title>S3Bucket</title>
<path fill="#fff5cd" stroke="black" stroke-width="2" d="M307.78,-65.45C307.78,-69.07 278.04,-72 241.43,-72 204.82,-72 175.09,-69.07 175.09,-65.45 175.09,-65.45 175.09,-6.55 175.09,-6.55 175.09,-2.93 204.82,0 241.43,0 278.04,0 307.78,-2.93 307.78,-6.55 307.78,-6.55 307.78,-65.45 307.78,-65.45"/>
<path fill="none" stroke="black" stroke-width="2" d="M307.78,-65.45C307.78,-61.84 278.04,-58.91 241.43,-58.91 204.82,-58.91 175.09,-61.84 175.09,-65.45"/>
<text text-anchor="middle" x="241.43" y="-40.2" font-family="Arial" font-size="14.00">S3Bucket</text>
<text text-anchor="middle" x="241.43" y="-23.4" font-family="Arial" font-size="14.00">(AWS::S3::Bucket)</text>
</g>
<!-- LambdaFunction&#45;&gt;S3Bucket -->
<g id="edge2" class="edge">
<title>LambdaFunction&#45;&gt;S3Bucket</title>
<path fill="none" stroke="black" d="M186.74,-107.7C193.31,-99.21 200.41,-90.03 207.25,-81.19"/>
<polygon fill="black" stroke="black" points="209.97,-83.39 213.32,-73.34 204.44,-79.11 209.97,-83.39"/>
</g>
<!-- ApiGateway -->
<g id="node4" class="node">
<title>ApiGateway</title>
<path fill="#e78f81" stroke="black" stroke-width="2" d="M246.07,-288C246.07,-288 72.8,-288 72.8,-288 66.8,-288 60.8,-282 60.8,-276 60.8,-276 60.8,-228 60.8,-228 60.8,-222 66.8,-216 72.8,-216 72.8,-216 246.07,-216 246.07,-216 252.07,-216 258.07,-222 258.07,-228 258.07,-228 258.07,-276 258.07,-276 258.07,-282 252.07,-288 246.07,-288"/>
<text text-anchor="middle" x="159.43" y="-256.2" font-family="Arial" font-size="14.00">ApiGateway</text>
<text text-anchor="middle" x="159.43" y="-239.4" font-family="Arial" font-size="14.00">(AWS::ApiGateway::RestApi)</text>
</g>
<!-- ApiGateway&#45;&gt;LambdaFunction -->
<g id="edge3" class="edge">
<title>ApiGateway&#45;&gt;LambdaFunction</title>
<path fill="none" stroke="black" d="M159.43,-215.7C159.43,-207.93 159.43,-199.57 159.43,-191.43"/>
<polygon fill="black" stroke="black" points="162.93,-191.66 159.43,-181.66 155.93,-191.66 162.93,-191.66"/>
</g>
<!-- DynamoDBTable -->
<g id="node5" class="node">
<title>DynamoDBTable</title>
<path fill="#ffcfb3" stroke="black" stroke-width="2" d="M455.12,-281.45C455.12,-285.07 414.92,-288 365.43,-288 315.95,-288 275.75,-285.07 275.75,-281.45 275.75,-281.45 275.75,-222.55 275.75,-222.55 275.75,-218.93 315.95,-216 365.43,-216 414.92,-216 455.12,-218.93 455.12,-222.55 455.12,-222.55 455.12,-281.45 455.12,-281.45"/>
<path fill="none" stroke="black" stroke-width="2" d="M455.12,-281.45C455.12,-277.84 414.92,-274.91 365.43,-274.91 315.95,-274.91 275.75,-277.84 275.75,-281.45"/>
<text text-anchor="middle" x="365.43" y="-256.2" font-family="Arial" font-size="14.00">DynamoDBTable</text>
<text text-anchor="middle" x="365.43" y="-239.4" font-family="Arial" font-size="14.00">(AWS::DynamoDB::Table)</text>
</g>
</g>
</svg>
